<?xml version="1.0" encoding="UTF-8" standalone="no"?>
<!DOCTYPE svg PUBLIC "-//W3C//DTD SVG 1.0//EN"
 "http://www.w3.org/TR/2001/REC-SVG-20010904/DTD/svg10.dtd" [
 <!ATTLIST svg xmlns:xlink CDATA #FIXED "http://www.w3.org/1999/xlink">
]>
<!-- Generated by Graphviz version 2.20.2 (Tue Mar &#160;2 21:46:26 UTC 2010)
     For user: (root) root -->
<!-- Title: G Pages: 1 -->
<svg width="368pt" height="1888pt"
 viewBox="0.00 0.00 368.00 1888.00" xmlns="http://www.w3.org/2000/svg" xmlns:xlink="http://www.w3.org/1999/xlink">
<g id="graph0" class="graph" transform="scale(1 1) rotate(0) translate(4 1884)">
<title>G</title>
<polygon style="fill:white;stroke:white;" points="-4,4 -4,-1884 364,-1884 364,4 -4,4"/>
<g id="cluster2" class="cluster"><title>cluster_global</title>
<polyline style="fill:none;stroke:gray;" points="20,-16 340,-16 "/>
<path style="fill:none;stroke:gray;" d="M340,-16C346,-16 352,-22 352,-28"/>
<polyline style="fill:none;stroke:gray;" points="352,-28 352,-1860 "/>
<path style="fill:none;stroke:gray;" d="M352,-1860C352,-1866 346,-1872 340,-1872"/>
<polyline style="fill:none;stroke:gray;" points="340,-1872 20,-1872 "/>
<path style="fill:none;stroke:gray;" d="M20,-1872C14,-1872 8,-1866 8,-1860"/>
<polyline style="fill:none;stroke:gray;" points="8,-1860 8,-28 "/>
<path style="fill:none;stroke:gray;" d="M8,-28C8,-22 14,-16 20,-16"/>
<text text-anchor="middle" x="180" y="-1858.1" style="font-family:Times New Roman;font-size:11.00;fill:gray;">global</text>
</g>
<!-- \\Setup -->
<g id="node2" class="node"><title>\\Setup</title>
<a xlink:href="Setup.html" xlink:title="Setup" target="_parent">
<polygon style="fill:none;stroke:black;" points="285,-1842 231,-1842 231,-1806 285,-1806 285,-1842"/>
<text text-anchor="middle" x="258" y="-1821.1" style="font-family:Courier;font-size:11.00;">Setup</text>
</a>
</g>
<!-- \\GroupingController -->
<g id="node3" class="node"><title>\\GroupingController</title>
<a xlink:href="grouping.controller.html" xlink:title="GroupingController" target="_parent">
<polygon style="fill:none;stroke:black;" points="327,-1788 189,-1788 189,-1752 327,-1752 327,-1788"/>
<text text-anchor="middle" x="258" y="-1767.1" style="font-family:Courier;font-size:11.00;">GroupingController</text>
</a>
</g>
<!-- \\Controller -->
<g id="node17" class="node"><title>\\Controller</title>
<a xlink:href="Controller.html" xlink:title="Controller" target="_parent">
<polygon style="fill:none;stroke:black;" points="100,-1032 16,-1032 16,-996 100,-996 100,-1032"/>
<text text-anchor="middle" x="58" y="-1011.1" style="font-family:Courier;font-size:11.00;">Controller</text>
</a>
</g>
<!-- \\GroupingController&#45;&gt;\\Controller -->
<g id="edge3" class="edge"><title>\\GroupingController&#45;&gt;\\Controller</title>
<path style="fill:none;stroke:black;" d="M189,-1756C182,-1753 177,-1748 172,-1743 79,-1634 62,-1164 58,-1042"/>
<polygon style="fill:none;stroke:black;" points="61.5001,-1042 58,-1032 54.5001,-1042 61.5001,-1042"/>
</g>
<!-- \\Group -->
<g id="node4" class="node"><title>\\Group</title>
<a xlink:href="grouping.Group.html" xlink:title="Group" target="_parent">
<polygon style="fill:none;stroke:black;" points="285,-1734 231,-1734 231,-1698 285,-1698 285,-1734"/>
<text text-anchor="middle" x="258" y="-1713.1" style="font-family:Courier;font-size:11.00;">Group</text>
</a>
</g>
<!-- \\GroupMembers -->
<g id="node5" class="node"><title>\\GroupMembers</title>
<a xlink:href="grouping.GroupMembers.html" xlink:title="GroupMembers" target="_parent">
<polygon style="fill:none;stroke:black;" points="306,-1680 210,-1680 210,-1644 306,-1644 306,-1680"/>
<text text-anchor="middle" x="258" y="-1659.1" style="font-family:Courier;font-size:11.00;">GroupMembers</text>
</a>
</g>
<!-- \\Dispatcher -->
<g id="node6" class="node"><title>\\Dispatcher</title>
<a xlink:href="Dispatcher.html" xlink:title="Dispatcher" target="_parent">
<polygon style="fill:none;stroke:black;" points="300,-1626 216,-1626 216,-1590 300,-1590 300,-1626"/>
<text text-anchor="middle" x="258" y="-1605.1" style="font-family:Courier;font-size:11.00;">Dispatcher</text>
</a>
</g>
<!-- \\Logger -->
<g id="node7" class="node"><title>\\Logger</title>
<a xlink:href="Logger.html" xlink:title="Logger" target="_parent">
<polygon style="fill:none;stroke:black;" points="286,-1572 230,-1572 230,-1536 286,-1536 286,-1572"/>
<text text-anchor="middle" x="258" y="-1551.1" style="font-family:Courier;font-size:11.00;">Logger</text>
</a>
</g>
<!-- \\GroupSearch -->
<g id="node8" class="node"><title>\\GroupSearch</title>
<a xlink:href="search.GroupSearch.html" xlink:title="GroupSearch" target="_parent">
<polygon style="fill:none;stroke:black;" points="303,-1518 213,-1518 213,-1482 303,-1482 303,-1518"/>
<text text-anchor="middle" x="258" y="-1497.1" style="font-family:Courier;font-size:11.00;">GroupSearch</text>
</a>
</g>
<!-- \\SearchController -->
<g id="node9" class="node"><title>\\SearchController</title>
<a xlink:href="search.controller.html" xlink:title="SearchController" target="_parent">
<polygon style="fill:none;stroke:black;" points="320,-1464 196,-1464 196,-1428 320,-1428 320,-1464"/>
<text text-anchor="middle" x="258" y="-1443.1" style="font-family:Courier;font-size:11.00;">SearchController</text>
</a>
</g>
<!-- \\SearchController&#45;&gt;\\Controller -->
<g id="edge5" class="edge"><title>\\SearchController&#45;&gt;\\Controller</title>
<path style="fill:none;stroke:black;" d="M196,-1435C187,-1431 179,-1426 172,-1419 117,-1363 76,-1124 63,-1042"/>
<polygon style="fill:none;stroke:black;" points="66.3933,-1041.12 61,-1032 59.5292,-1042.49 66.3933,-1041.12"/>
</g>
<!-- \\PostSearch -->
<g id="node10" class="node"><title>\\PostSearch</title>
<a xlink:href="search.PostSearch.html" xlink:title="PostSearch" target="_parent">
<polygon style="fill:none;stroke:black;" points="300,-1410 216,-1410 216,-1374 300,-1374 300,-1410"/>
<text text-anchor="middle" x="258" y="-1389.1" style="font-family:Courier;font-size:11.00;">PostSearch</text>
</a>
</g>
<!-- \\PeopleSearch -->
<g id="node11" class="node"><title>\\PeopleSearch</title>
<a xlink:href="search.PeopleSearch.html" xlink:title="PeopleSearch" target="_parent">
<polygon style="fill:none;stroke:black;" points="306,-1356 210,-1356 210,-1320 306,-1320 306,-1356"/>
<text text-anchor="middle" x="258" y="-1335.1" style="font-family:Courier;font-size:11.00;">PeopleSearch</text>
</a>
</g>
<!-- \\Search -->
<g id="node12" class="node"><title>\\Search</title>
<a xlink:href="search.Search.html" xlink:title="Search" target="_parent">
<polygon style="fill:none;stroke:black;" points="286,-1302 230,-1302 230,-1266 286,-1266 286,-1302"/>
<text text-anchor="middle" x="258" y="-1281.1" style="font-family:Courier;font-size:11.00;">Search</text>
</a>
</g>
<!-- \\Registry -->
<g id="node13" class="node"><title>\\Registry</title>
<a xlink:href="Registry.html" xlink:title="Registry" target="_parent">
<polygon style="fill:none;stroke:black;" points="293,-1248 223,-1248 223,-1212 293,-1212 293,-1248"/>
<text text-anchor="middle" x="258" y="-1227.1" style="font-family:Courier;font-size:11.00;">Registry</text>
</a>
</g>
<!-- \\EventsController -->
<g id="node14" class="node"><title>\\EventsController</title>
<a xlink:href="events.controller.html" xlink:title="EventsController" target="_parent">
<polygon style="fill:none;stroke:black;" points="320,-1194 196,-1194 196,-1158 320,-1158 320,-1194"/>
<text text-anchor="middle" x="258" y="-1173.1" style="font-family:Courier;font-size:11.00;">EventsController</text>
</a>
</g>
<!-- \\EventsController&#45;&gt;\\Controller -->
<g id="edge7" class="edge"><title>\\EventsController&#45;&gt;\\Controller</title>
<path style="fill:none;stroke:black;" d="M196,-1161C187,-1158 179,-1154 172,-1149 129,-1120 93,-1071 74,-1041"/>
<polygon style="fill:none;stroke:black;" points="76.4592,-1038.38 68,-1032 70.6349,-1042.26 76.4592,-1038.38"/>
</g>
<!-- \\EventRegister -->
<g id="node15" class="node"><title>\\EventRegister</title>
<a xlink:href="events.EventRegister.html" xlink:title="EventRegister" target="_parent">
<polygon style="fill:none;stroke:black;" points="310,-1140 206,-1140 206,-1104 310,-1104 310,-1140"/>
<text text-anchor="middle" x="258" y="-1119.1" style="font-family:Courier;font-size:11.00;">EventRegister</text>
</a>
</g>
<!-- \\Event -->
<g id="node16" class="node"><title>\\Event</title>
<a xlink:href="events.Event.html" xlink:title="Event" target="_parent">
<polygon style="fill:none;stroke:black;" points="285,-1086 231,-1086 231,-1050 285,-1050 285,-1086"/>
<text text-anchor="middle" x="258" y="-1065.1" style="font-family:Courier;font-size:11.00;">Event</text>
</a>
</g>
<!-- \\MessagingController -->
<g id="node18" class="node"><title>\\MessagingController</title>
<a xlink:href="messaging.controller.html" xlink:title="MessagingController" target="_parent">
<polygon style="fill:none;stroke:black;" points="330,-1032 186,-1032 186,-996 330,-996 330,-1032"/>
<text text-anchor="middle" x="258" y="-1011.1" style="font-family:Courier;font-size:11.00;">MessagingController</text>
</a>
</g>
<!-- \\MessagingController&#45;&gt;\\Controller -->
<g id="edge9" class="edge"><title>\\MessagingController&#45;&gt;\\Controller</title>
<path style="fill:none;stroke:black;" d="M186,-1014C161,-1014 133,-1014 110,-1014"/>
<polygon style="fill:none;stroke:black;" points="110,-1010.5 100,-1014 110,-1017.5 110,-1010.5"/>
</g>
<!-- \\Message -->
<g id="node19" class="node"><title>\\Message</title>
<a xlink:href="messaging.Message.html" xlink:title="Message" target="_parent">
<polygon style="fill:none;stroke:black;" points="289,-978 227,-978 227,-942 289,-942 289,-978"/>
<text text-anchor="middle" x="258" y="-957.1" style="font-family:Courier;font-size:11.00;">Message</text>
</a>
</g>
<!-- \\Inbox -->
<g id="node20" class="node"><title>\\Inbox</title>
<a xlink:href="messaging.Inbox.html" xlink:title="Inbox" target="_parent">
<polygon style="fill:none;stroke:black;" points="285,-924 231,-924 231,-888 285,-888 285,-924"/>
<text text-anchor="middle" x="258" y="-903.1" style="font-family:Courier;font-size:11.00;">Inbox</text>
</a>
</g>
<!-- \\Outbox -->
<g id="node21" class="node"><title>\\Outbox</title>
<a xlink:href="messaging.Outbox.html" xlink:title="Outbox" target="_parent">
<polygon style="fill:none;stroke:black;" points="286,-870 230,-870 230,-834 286,-834 286,-870"/>
<text text-anchor="middle" x="258" y="-849.1" style="font-family:Courier;font-size:11.00;">Outbox</text>
</a>
</g>
<!-- \\Frisby -->
<g id="node22" class="node"><title>\\Frisby</title>
<a xlink:href="Frisby.html" xlink:title="Frisby" target="_parent">
<polygon style="fill:none;stroke:black;" points="286,-816 230,-816 230,-780 286,-780 286,-816"/>
<text text-anchor="middle" x="258" y="-795.1" style="font-family:Courier;font-size:11.00;">Frisby</text>
</a>
</g>
<!-- \\ErrorHandler -->
<g id="node23" class="node"><title>\\ErrorHandler</title>
<a xlink:href="ErrorHandler.html" xlink:title="ErrorHandler" target="_parent">
<polygon style="fill:none;stroke:black;" points="306,-762 210,-762 210,-726 306,-726 306,-762"/>
<text text-anchor="middle" x="258" y="-741.1" style="font-family:Courier;font-size:11.00;">ErrorHandler</text>
</a>
</g>
<!-- \\PubSubController -->
<g id="node24" class="node"><title>\\PubSubController</title>
<a xlink:href="pubsub.controller.html" xlink:title="PubSubController" target="_parent">
<polygon style="fill:none;stroke:black;" points="320,-708 196,-708 196,-672 320,-672 320,-708"/>
<text text-anchor="middle" x="258" y="-687.1" style="font-family:Courier;font-size:11.00;">PubSubController</text>
</a>
</g>
<!-- \\PubSubController&#45;&gt;\\Controller -->
<g id="edge11" class="edge"><title>\\PubSubController&#45;&gt;\\Controller</title>
<path style="fill:none;stroke:black;" d="M196,-702C187,-705 179,-710 172,-717 92,-791 68,-927 60,-986"/>
<polygon style="fill:none;stroke:black;" points="56.5125,-985.701 59,-996 63.4778,-986.398 56.5125,-985.701"/>
</g>
<!-- \\Read -->
<g id="node25" class="node"><title>\\Read</title>
<a xlink:href="pubsub.Read.html" xlink:title="Read" target="_parent">
<polygon style="fill:none;stroke:black;" points="285,-654 231,-654 231,-618 285,-618 285,-654"/>
<text text-anchor="middle" x="258" y="-633.1" style="font-family:Courier;font-size:11.00;">Read</text>
</a>
</g>
<!-- \\Publish -->
<g id="node26" class="node"><title>\\Publish</title>
<a xlink:href="pubsub.Publish.html" xlink:title="Publish" target="_parent">
<polygon style="fill:none;stroke:black;" points="289,-600 227,-600 227,-564 289,-564 289,-600"/>
<text text-anchor="middle" x="258" y="-579.1" style="font-family:Courier;font-size:11.00;">Publish</text>
</a>
</g>
<!-- \\Mime -->
<g id="node27" class="node"><title>\\Mime</title>
<a xlink:href="pubsub.Mime.html" xlink:title="Mime" target="_parent">
<polygon style="fill:none;stroke:black;" points="285,-546 231,-546 231,-510 285,-510 285,-546"/>
<text text-anchor="middle" x="258" y="-525.1" style="font-family:Courier;font-size:11.00;">Mime</text>
</a>
</g>
<!-- \\Database -->
<g id="node28" class="node"><title>\\Database</title>
<a xlink:href="Database.html" xlink:title="Database" target="_parent">
<polygon style="fill:none;stroke:black;" points="293,-492 223,-492 223,-456 293,-456 293,-492"/>
<text text-anchor="middle" x="258" y="-471.1" style="font-family:Courier;font-size:11.00;">Database</text>
</a>
</g>
<!-- \\EventHandler -->
<g id="node29" class="node"><title>\\EventHandler</title>
<a xlink:href="EventHandler.html" xlink:title="EventHandler" target="_parent">
<polygon style="fill:none;stroke:black;" points="306,-438 210,-438 210,-402 306,-402 306,-438"/>
<text text-anchor="middle" x="258" y="-417.1" style="font-family:Courier;font-size:11.00;">EventHandler</text>
</a>
</g>
<!-- \\UserRelationsController -->
<g id="node30" class="node"><title>\\UserRelationsController</title>
<a xlink:href="user-relations.controller.html" xlink:title="UserRelationsController" target="_parent">
<polygon style="fill:none;stroke:black;" points="343,-384 173,-384 173,-348 343,-348 343,-384"/>
<text text-anchor="middle" x="258" y="-363.1" style="font-family:Courier;font-size:11.00;">UserRelationsController</text>
</a>
</g>
<!-- \\UserRelationsController&#45;&gt;\\Controller -->
<g id="edge13" class="edge"><title>\\UserRelationsController&#45;&gt;\\Controller</title>
<path style="fill:none;stroke:black;" d="M182,-384C178,-387 175,-390 172,-393 92,-483 66,-876 60,-986"/>
<polygon style="fill:none;stroke:black;" points="56.5125,-985.701 59,-996 63.4778,-986.398 56.5125,-985.701"/>
</g>
<!-- \\UserRelations -->
<g id="node31" class="node"><title>\\UserRelations</title>
<a xlink:href="user-relations.UserRelations.html" xlink:title="UserRelations" target="_parent">
<polygon style="fill:none;stroke:black;" points="310,-330 206,-330 206,-294 310,-294 310,-330"/>
<text text-anchor="middle" x="258" y="-309.1" style="font-family:Courier;font-size:11.00;">UserRelations</text>
</a>
</g>
<!-- \\ExtendedProfile -->
<g id="node32" class="node"><title>\\ExtendedProfile</title>
<a xlink:href="profiling.ExtendedProfile.html" xlink:title="ExtendedProfile" target="_parent">
<polygon style="fill:none;stroke:black;" points="316,-276 200,-276 200,-240 316,-240 316,-276"/>
<text text-anchor="middle" x="258" y="-255.1" style="font-family:Courier;font-size:11.00;">ExtendedProfile</text>
</a>
</g>
<!-- \\ProfileController -->
<g id="node33" class="node"><title>\\ProfileController</title>
<a xlink:href="profiling.controller.html" xlink:title="ProfileController" target="_parent">
<polygon style="fill:none;stroke:black;" points="323,-222 193,-222 193,-186 323,-186 323,-222"/>
<text text-anchor="middle" x="258" y="-201.1" style="font-family:Courier;font-size:11.00;">ProfileController</text>
</a>
</g>
<!-- \\ProfileController&#45;&gt;\\Controller -->
<g id="edge15" class="edge"><title>\\ProfileController&#45;&gt;\\Controller</title>
<path style="fill:none;stroke:black;" d="M192,-215C184,-219 177,-224 172,-231 120,-289 72,-852 60,-986"/>
<polygon style="fill:none;stroke:black;" points="56.5125,-985.701 59,-996 63.4778,-986.398 56.5125,-985.701"/>
</g>
<!-- \\Privacy -->
<g id="node34" class="node"><title>\\Privacy</title>
<a xlink:href="profiling.Privacy.html" xlink:title="Privacy" target="_parent">
<polygon style="fill:none;stroke:black;" points="289,-168 227,-168 227,-132 289,-132 289,-168"/>
<text text-anchor="middle" x="258" y="-147.1" style="font-family:Courier;font-size:11.00;">Privacy</text>
</a>
</g>
<!-- \\Profile -->
<g id="node35" class="node"><title>\\Profile</title>
<a xlink:href="profiling.Profile.html" xlink:title="Profile" target="_parent">
<polygon style="fill:none;stroke:black;" points="289,-114 227,-114 227,-78 289,-78 289,-114"/>
<text text-anchor="middle" x="258" y="-93.1" style="font-family:Courier;font-size:11.00;">Profile</text>
</a>
</g>
<!-- \\Account -->
<g id="node36" class="node"><title>\\Account</title>
<a xlink:href="profiling.Account.html" xlink:title="Account" target="_parent">
<polygon style="fill:none;stroke:black;" points="289,-60 227,-60 227,-24 289,-24 289,-60"/>
<text text-anchor="middle" x="258" y="-39.1" style="font-family:Courier;font-size:11.00;">Account</text>
</a>
</g>
</g>
</svg>
