<?xml version="1.0" encoding="UTF-8" standalone="no"?>
<!DOCTYPE svg PUBLIC "-//W3C//DTD SVG 1.0//EN"
 "http://www.w3.org/TR/2001/REC-SVG-20010904/DTD/svg10.dtd" [
 <!ATTLIST svg xmlns:xlink CDATA #FIXED "http://www.w3.org/1999/xlink">
]>
<!-- Generated by Graphviz version 2.20.2 (Tue Mar &#160;2 21:46:26 UTC 2010)
     For user: (root) root -->
<!-- Title: G Pages: 1 -->
<svg width="334pt" height="1564pt"
 viewBox="0.00 0.00 334.00 1564.00" xmlns="http://www.w3.org/2000/svg" xmlns:xlink="http://www.w3.org/1999/xlink">
<g id="graph0" class="graph" transform="scale(1 1) rotate(0) translate(4 1560)">
<title>G</title>
<polygon style="fill:white;stroke:white;" points="-4,4 -4,-1560 330,-1560 330,4 -4,4"/>
<g id="cluster2" class="cluster"><title>cluster_global</title>
<polyline style="fill:none;stroke:gray;" points="20,-16 306,-16 "/>
<path style="fill:none;stroke:gray;" d="M306,-16C312,-16 318,-22 318,-28"/>
<polyline style="fill:none;stroke:gray;" points="318,-28 318,-1536 "/>
<path style="fill:none;stroke:gray;" d="M318,-1536C318,-1542 312,-1548 306,-1548"/>
<polyline style="fill:none;stroke:gray;" points="306,-1548 20,-1548 "/>
<path style="fill:none;stroke:gray;" d="M20,-1548C14,-1548 8,-1542 8,-1536"/>
<polyline style="fill:none;stroke:gray;" points="8,-1536 8,-28 "/>
<path style="fill:none;stroke:gray;" d="M8,-28C8,-22 14,-16 20,-16"/>
<text text-anchor="middle" x="163" y="-1534.1" style="font-family:Times New Roman;font-size:11.00;fill:gray;">global</text>
</g>
<!-- \\Group -->
<g id="node2" class="node"><title>\\Group</title>
<a xlink:href="modules.grouping.Group.html" xlink:title="Group" target="_parent">
<polygon style="fill:none;stroke:black;" points="278,-1518 224,-1518 224,-1482 278,-1482 278,-1518"/>
<text text-anchor="middle" x="251" y="-1497.1" style="font-family:Courier;font-size:11.00;">Group</text>
</a>
</g>
<!-- \\ModuleSupport -->
<g id="node27" class="node"><title>\\ModuleSupport</title>
<a xlink:href="core.ModuleSupport.html" xlink:title="ModuleSupport" target="_parent">
<polygon style="fill:none;stroke:black;" points="120,-1032 16,-1032 16,-996 120,-996 120,-1032"/>
<text text-anchor="middle" x="68" y="-1011.1" style="font-family:Courier;font-size:11.00;">ModuleSupport</text>
</a>
</g>
<!-- \\Group&#45;&gt;\\ModuleSupport -->
<g id="edge3" class="edge"><title>\\Group&#45;&gt;\\ModuleSupport</title>
<path style="fill:none;stroke:black;" d="M224,-1493C212,-1489 200,-1483 192,-1473 134,-1406 87,-1132 73,-1042"/>
<polygon style="fill:none;stroke:black;" points="76.3933,-1041.12 71,-1032 69.5292,-1042.49 76.3933,-1041.12"/>
</g>
<!-- \\GroupMembers -->
<g id="node3" class="node"><title>\\GroupMembers</title>
<a xlink:href="modules.grouping.GroupMembers.html" xlink:title="GroupMembers" target="_parent">
<polygon style="fill:none;stroke:black;" points="299,-1464 203,-1464 203,-1428 299,-1428 299,-1464"/>
<text text-anchor="middle" x="251" y="-1443.1" style="font-family:Courier;font-size:11.00;">GroupMembers</text>
</a>
</g>
<!-- \\GroupMembers&#45;&gt;\\ModuleSupport -->
<g id="edge5" class="edge"><title>\\GroupMembers&#45;&gt;\\ModuleSupport</title>
<path style="fill:none;stroke:black;" d="M202,-1428C199,-1425 195,-1422 192,-1419 140,-1361 89,-1124 73,-1042"/>
<polygon style="fill:none;stroke:black;" points="76.3933,-1041.12 71,-1032 69.5292,-1042.49 76.3933,-1041.12"/>
</g>
<!-- \\GroupSearch -->
<g id="node4" class="node"><title>\\GroupSearch</title>
<a xlink:href="modules.search.GroupSearch.html" xlink:title="GroupSearch" target="_parent">
<polygon style="fill:none;stroke:black;" points="296,-1410 206,-1410 206,-1374 296,-1374 296,-1410"/>
<text text-anchor="middle" x="251" y="-1389.1" style="font-family:Courier;font-size:11.00;">GroupSearch</text>
</a>
</g>
<!-- \\GroupSearch&#45;&gt;\\ModuleSupport -->
<g id="edge7" class="edge"><title>\\GroupSearch&#45;&gt;\\ModuleSupport</title>
<path style="fill:none;stroke:black;" d="M206,-1376C201,-1373 196,-1369 192,-1365 104,-1269 78,-1107 70,-1042"/>
<polygon style="fill:none;stroke:black;" points="73.4778,-1041.6 69,-1032 66.5125,-1042.3 73.4778,-1041.6"/>
</g>
<!-- \\PostSearch -->
<g id="node5" class="node"><title>\\PostSearch</title>
<a xlink:href="modules.search.PostSearch.html" xlink:title="PostSearch" target="_parent">
<polygon style="fill:none;stroke:black;" points="293,-1356 209,-1356 209,-1320 293,-1320 293,-1356"/>
<text text-anchor="middle" x="251" y="-1335.1" style="font-family:Courier;font-size:11.00;">PostSearch</text>
</a>
</g>
<!-- \\PostSearch&#45;&gt;\\ModuleSupport -->
<g id="edge9" class="edge"><title>\\PostSearch&#45;&gt;\\ModuleSupport</title>
<path style="fill:none;stroke:black;" d="M209,-1323C203,-1320 197,-1316 192,-1311 116,-1232 84,-1100 73,-1042"/>
<polygon style="fill:none;stroke:black;" points="76.3933,-1041.12 71,-1032 69.5292,-1042.49 76.3933,-1041.12"/>
</g>
<!-- \\PeopleSearch -->
<g id="node6" class="node"><title>\\PeopleSearch</title>
<a xlink:href="modules.search.PeopleSearch.html" xlink:title="PeopleSearch" target="_parent">
<polygon style="fill:none;stroke:black;" points="299,-1302 203,-1302 203,-1266 299,-1266 299,-1302"/>
<text text-anchor="middle" x="251" y="-1281.1" style="font-family:Courier;font-size:11.00;">PeopleSearch</text>
</a>
</g>
<!-- \\PeopleSearch&#45;&gt;\\ModuleSupport -->
<g id="edge11" class="edge"><title>\\PeopleSearch&#45;&gt;\\ModuleSupport</title>
<path style="fill:none;stroke:black;" d="M204,-1266C199,-1263 195,-1260 192,-1257 127,-1194 90,-1091 76,-1042"/>
<polygon style="fill:none;stroke:black;" points="79.2259,-1040.57 73,-1032 72.5212,-1042.58 79.2259,-1040.57"/>
</g>
<!-- \\Search -->
<g id="node7" class="node"><title>\\Search</title>
<a xlink:href="modules.search.Search.html" xlink:title="Search" target="_parent">
<polygon style="fill:none;stroke:black;" points="279,-1248 223,-1248 223,-1212 279,-1212 279,-1248"/>
<text text-anchor="middle" x="251" y="-1227.1" style="font-family:Courier;font-size:11.00;">Search</text>
</a>
</g>
<!-- \\Search&#45;&gt;\\ModuleSupport -->
<g id="edge13" class="edge"><title>\\Search&#45;&gt;\\ModuleSupport</title>
<path style="fill:none;stroke:black;" d="M222,-1220C212,-1216 201,-1210 192,-1203 137,-1157 98,-1082 80,-1041"/>
<polygon style="fill:none;stroke:black;" points="83.2598,-1039.72 76,-1032 76.8631,-1042.56 83.2598,-1039.72"/>
</g>
<!-- \\EventRegister -->
<g id="node8" class="node"><title>\\EventRegister</title>
<a xlink:href="modules.events.EventRegister.html" xlink:title="EventRegister" target="_parent">
<polygon style="fill:none;stroke:black;" points="303,-1194 199,-1194 199,-1158 303,-1158 303,-1194"/>
<text text-anchor="middle" x="251" y="-1173.1" style="font-family:Courier;font-size:11.00;">EventRegister</text>
</a>
</g>
<!-- \\EventRegister&#45;&gt;\\ModuleSupport -->
<g id="edge15" class="edge"><title>\\EventRegister&#45;&gt;\\ModuleSupport</title>
<path style="fill:none;stroke:black;" d="M207,-1158C202,-1155 197,-1152 192,-1149 149,-1118 110,-1070 87,-1040"/>
<polygon style="fill:none;stroke:black;" points="89.8,-1037.9 81,-1032 84.2,-1042.1 89.8,-1037.9"/>
</g>
<!-- \\Event -->
<g id="node9" class="node"><title>\\Event</title>
<a xlink:href="modules.events.Event.html" xlink:title="Event" target="_parent">
<polygon style="fill:none;stroke:black;" points="278,-1140 224,-1140 224,-1104 278,-1104 278,-1140"/>
<text text-anchor="middle" x="251" y="-1119.1" style="font-family:Courier;font-size:11.00;">Event</text>
</a>
</g>
<!-- \\Event&#45;&gt;\\ModuleSupport -->
<g id="edge17" class="edge"><title>\\Event&#45;&gt;\\ModuleSupport</title>
<path style="fill:none;stroke:black;" d="M224,-1110C214,-1106 202,-1100 192,-1095 160,-1077 126,-1054 101,-1038"/>
<polygon style="fill:none;stroke:black;" points="103.1,-1035.2 93,-1032 98.9,-1040.8 103.1,-1035.2"/>
</g>
<!-- \\Message -->
<g id="node10" class="node"><title>\\Message</title>
<a xlink:href="modules.messaging.Message.html" xlink:title="Message" target="_parent">
<polygon style="fill:none;stroke:black;" points="282,-1086 220,-1086 220,-1050 282,-1050 282,-1086"/>
<text text-anchor="middle" x="251" y="-1065.1" style="font-family:Courier;font-size:11.00;">Message</text>
</a>
</g>
<!-- \\Message&#45;&gt;\\ModuleSupport -->
<g id="edge19" class="edge"><title>\\Message&#45;&gt;\\ModuleSupport</title>
<path style="fill:none;stroke:black;" d="M219,-1059C195,-1052 160,-1041 130,-1032"/>
<polygon style="fill:none;stroke:black;" points="130.584,-1028.52 120,-1029 128.573,-1035.23 130.584,-1028.52"/>
</g>
<!-- \\Inbox -->
<g id="node11" class="node"><title>\\Inbox</title>
<a xlink:href="modules.messaging.Inbox.html" xlink:title="Inbox" target="_parent">
<polygon style="fill:none;stroke:black;" points="278,-1032 224,-1032 224,-996 278,-996 278,-1032"/>
<text text-anchor="middle" x="251" y="-1011.1" style="font-family:Courier;font-size:11.00;">Inbox</text>
</a>
</g>
<!-- \\Inbox&#45;&gt;\\ModuleSupport -->
<g id="edge21" class="edge"><title>\\Inbox&#45;&gt;\\ModuleSupport</title>
<path style="fill:none;stroke:black;" d="M224,-1014C200,-1014 162,-1014 130,-1014"/>
<polygon style="fill:none;stroke:black;" points="130,-1010.5 120,-1014 130,-1017.5 130,-1010.5"/>
</g>
<!-- \\Outbox -->
<g id="node12" class="node"><title>\\Outbox</title>
<a xlink:href="modules.messaging.Outbox.html" xlink:title="Outbox" target="_parent">
<polygon style="fill:none;stroke:black;" points="279,-978 223,-978 223,-942 279,-942 279,-978"/>
<text text-anchor="middle" x="251" y="-957.1" style="font-family:Courier;font-size:11.00;">Outbox</text>
</a>
</g>
<!-- \\Outbox&#45;&gt;\\ModuleSupport -->
<g id="edge23" class="edge"><title>\\Outbox&#45;&gt;\\ModuleSupport</title>
<path style="fill:none;stroke:black;" d="M222,-968C198,-975 161,-987 130,-996"/>
<polygon style="fill:none;stroke:black;" points="128.573,-992.774 120,-999 130.584,-999.479 128.573,-992.774"/>
</g>
<!-- \\Read -->
<g id="node13" class="node"><title>\\Read</title>
<a xlink:href="modules.pubsub.Read.html" xlink:title="Read" target="_parent">
<polygon style="fill:none;stroke:black;" points="278,-924 224,-924 224,-888 278,-888 278,-924"/>
<text text-anchor="middle" x="251" y="-903.1" style="font-family:Courier;font-size:11.00;">Read</text>
</a>
</g>
<!-- \\Read&#45;&gt;\\ModuleSupport -->
<g id="edge25" class="edge"><title>\\Read&#45;&gt;\\ModuleSupport</title>
<path style="fill:none;stroke:black;" d="M224,-917C214,-922 202,-927 192,-933 160,-950 125,-973 101,-990"/>
<polygon style="fill:none;stroke:black;" points="98.9,-987.2 93,-996 103.1,-992.8 98.9,-987.2"/>
</g>
<!-- \\Publish -->
<g id="node14" class="node"><title>\\Publish</title>
<a xlink:href="modules.pubsub.Publish.html" xlink:title="Publish" target="_parent">
<polygon style="fill:none;stroke:black;" points="282,-870 220,-870 220,-834 282,-834 282,-870"/>
<text text-anchor="middle" x="251" y="-849.1" style="font-family:Courier;font-size:11.00;">Publish</text>
</a>
</g>
<!-- \\Publish&#45;&gt;\\ModuleSupport -->
<g id="edge27" class="edge"><title>\\Publish&#45;&gt;\\ModuleSupport</title>
<path style="fill:none;stroke:black;" d="M219,-864C210,-868 200,-873 192,-879 149,-910 109,-958 87,-988"/>
<polygon style="fill:none;stroke:black;" points="84.2,-985.9 81,-996 89.8,-990.1 84.2,-985.9"/>
</g>
<!-- \\Mime -->
<g id="node15" class="node"><title>\\Mime</title>
<a xlink:href="modules.pubsub.Mime.html" xlink:title="Mime" target="_parent">
<polygon style="fill:none;stroke:black;" points="278,-816 224,-816 224,-780 278,-780 278,-816"/>
<text text-anchor="middle" x="251" y="-795.1" style="font-family:Courier;font-size:11.00;">Mime</text>
</a>
</g>
<!-- \\Mime&#45;&gt;\\ModuleSupport -->
<g id="edge29" class="edge"><title>\\Mime&#45;&gt;\\ModuleSupport</title>
<path style="fill:none;stroke:black;" d="M224,-806C213,-811 201,-817 192,-825 137,-871 98,-946 80,-987"/>
<polygon style="fill:none;stroke:black;" points="76.8631,-985.44 76,-996 83.2598,-988.283 76.8631,-985.44"/>
</g>
<!-- \\UserRelations -->
<g id="node16" class="node"><title>\\UserRelations</title>
<a xlink:href="modules.user-relations.UserRelations.html" xlink:title="UserRelations" target="_parent">
<polygon style="fill:none;stroke:black;" points="303,-762 199,-762 199,-726 303,-726 303,-762"/>
<text text-anchor="middle" x="251" y="-741.1" style="font-family:Courier;font-size:11.00;">UserRelations</text>
</a>
</g>
<!-- \\UserRelations&#45;&gt;\\ModuleSupport -->
<g id="edge31" class="edge"><title>\\UserRelations&#45;&gt;\\ModuleSupport</title>
<path style="fill:none;stroke:black;" d="M203,-762C199,-765 195,-768 192,-771 127,-833 90,-937 76,-986"/>
<polygon style="fill:none;stroke:black;" points="72.5212,-985.416 73,-996 79.2259,-987.427 72.5212,-985.416"/>
</g>
<!-- \\ExtendedProfile -->
<g id="node17" class="node"><title>\\ExtendedProfile</title>
<a xlink:href="modules.profiling.ExtendedProfile.html" xlink:title="ExtendedProfile" target="_parent">
<polygon style="fill:none;stroke:black;" points="309,-708 193,-708 193,-672 309,-672 309,-708"/>
<text text-anchor="middle" x="251" y="-687.1" style="font-family:Courier;font-size:11.00;">ExtendedProfile</text>
</a>
</g>
<!-- \\ExtendedProfile&#45;&gt;\\ModuleSupport -->
<g id="edge33" class="edge"><title>\\ExtendedProfile&#45;&gt;\\ModuleSupport</title>
<path style="fill:none;stroke:black;" d="M203,-708C199,-711 195,-714 192,-717 116,-795 84,-928 73,-986"/>
<polygon style="fill:none;stroke:black;" points="69.5292,-985.508 71,-996 76.3933,-986.881 69.5292,-985.508"/>
</g>
<!-- \\Privacy -->
<g id="node18" class="node"><title>\\Privacy</title>
<a xlink:href="modules.profiling.Privacy.html" xlink:title="Privacy" target="_parent">
<polygon style="fill:none;stroke:black;" points="282,-654 220,-654 220,-618 282,-618 282,-654"/>
<text text-anchor="middle" x="251" y="-633.1" style="font-family:Courier;font-size:11.00;">Privacy</text>
</a>
</g>
<!-- \\Privacy&#45;&gt;\\ModuleSupport -->
<g id="edge35" class="edge"><title>\\Privacy&#45;&gt;\\ModuleSupport</title>
<path style="fill:none;stroke:black;" d="M219,-645C209,-649 199,-655 192,-663 104,-759 78,-921 70,-986"/>
<polygon style="fill:none;stroke:black;" points="66.5125,-985.701 69,-996 73.4778,-986.398 66.5125,-985.701"/>
</g>
<!-- \\Profile -->
<g id="node19" class="node"><title>\\Profile</title>
<a xlink:href="modules.profiling.Profile.html" xlink:title="Profile" target="_parent">
<polygon style="fill:none;stroke:black;" points="282,-600 220,-600 220,-564 282,-564 282,-600"/>
<text text-anchor="middle" x="251" y="-579.1" style="font-family:Courier;font-size:11.00;">Profile</text>
</a>
</g>
<!-- \\Profile&#45;&gt;\\ModuleSupport -->
<g id="edge37" class="edge"><title>\\Profile&#45;&gt;\\ModuleSupport</title>
<path style="fill:none;stroke:black;" d="M219,-591C209,-595 199,-601 192,-609 140,-666 89,-904 73,-986"/>
<polygon style="fill:none;stroke:black;" points="69.5292,-985.508 71,-996 76.3933,-986.881 69.5292,-985.508"/>
</g>
<!-- \\Account -->
<g id="node20" class="node"><title>\\Account</title>
<a xlink:href="modules.profiling.Account.html" xlink:title="Account" target="_parent">
<polygon style="fill:none;stroke:black;" points="282,-546 220,-546 220,-510 282,-510 282,-546"/>
<text text-anchor="middle" x="251" y="-525.1" style="font-family:Courier;font-size:11.00;">Account</text>
</a>
</g>
<!-- \\Account&#45;&gt;\\ModuleSupport -->
<g id="edge39" class="edge"><title>\\Account&#45;&gt;\\ModuleSupport</title>
<path style="fill:none;stroke:black;" d="M219,-536C209,-540 199,-546 192,-555 134,-621 87,-896 73,-986"/>
<polygon style="fill:none;stroke:black;" points="69.5292,-985.508 71,-996 76.3933,-986.881 69.5292,-985.508"/>
</g>
<!-- \\Frisby -->
<g id="node21" class="node"><title>\\Frisby</title>
<a xlink:href="Frisby.html" xlink:title="Frisby" target="_parent">
<polygon style="fill:none;stroke:black;" points="279,-492 223,-492 223,-456 279,-456 279,-492"/>
<text text-anchor="middle" x="251" y="-471.1" style="font-family:Courier;font-size:11.00;">Frisby</text>
</a>
</g>
<!-- \\Setup -->
<g id="node22" class="node"><title>\\Setup</title>
<a xlink:href="core.Setup.html" xlink:title="Setup" target="_parent">
<polygon style="fill:none;stroke:black;" points="278,-438 224,-438 224,-402 278,-402 278,-438"/>
<text text-anchor="middle" x="251" y="-417.1" style="font-family:Courier;font-size:11.00;">Setup</text>
</a>
</g>
<!-- \\Admin -->
<g id="node23" class="node"><title>\\Admin</title>
<a xlink:href="core.Admin.html" xlink:title="Admin" target="_parent">
<polygon style="fill:none;stroke:black;" points="278,-384 224,-384 224,-348 278,-348 278,-384"/>
<text text-anchor="middle" x="251" y="-363.1" style="font-family:Courier;font-size:11.00;">Admin</text>
</a>
</g>
<!-- \\Dispatcher -->
<g id="node24" class="node"><title>\\Dispatcher</title>
<a xlink:href="core.Dispatcher.html" xlink:title="Dispatcher" target="_parent">
<polygon style="fill:none;stroke:black;" points="293,-330 209,-330 209,-294 293,-294 293,-330"/>
<text text-anchor="middle" x="251" y="-309.1" style="font-family:Courier;font-size:11.00;">Dispatcher</text>
</a>
</g>
<!-- \\Logger -->
<g id="node25" class="node"><title>\\Logger</title>
<a xlink:href="core.Logger.html" xlink:title="Logger" target="_parent">
<polygon style="fill:none;stroke:black;" points="279,-276 223,-276 223,-240 279,-240 279,-276"/>
<text text-anchor="middle" x="251" y="-255.1" style="font-family:Courier;font-size:11.00;">Logger</text>
</a>
</g>
<!-- \\Registry -->
<g id="node26" class="node"><title>\\Registry</title>
<a xlink:href="core.Registry.html" xlink:title="Registry" target="_parent">
<polygon style="fill:none;stroke:black;" points="286,-222 216,-222 216,-186 286,-186 286,-222"/>
<text text-anchor="middle" x="251" y="-201.1" style="font-family:Courier;font-size:11.00;">Registry</text>
</a>
</g>
<!-- \\ErrorHandler -->
<g id="node28" class="node"><title>\\ErrorHandler</title>
<a xlink:href="core.ErrorHandler.html" xlink:title="ErrorHandler" target="_parent">
<polygon style="fill:none;stroke:black;" points="299,-168 203,-168 203,-132 299,-132 299,-168"/>
<text text-anchor="middle" x="251" y="-147.1" style="font-family:Courier;font-size:11.00;">ErrorHandler</text>
</a>
</g>
<!-- \\Database -->
<g id="node29" class="node"><title>\\Database</title>
<a xlink:href="core.Database.html" xlink:title="Database" target="_parent">
<polygon style="fill:none;stroke:black;" points="286,-114 216,-114 216,-78 286,-78 286,-114"/>
<text text-anchor="middle" x="251" y="-93.1" style="font-family:Courier;font-size:11.00;">Database</text>
</a>
</g>
<!-- \\EventHandler -->
<g id="node30" class="node"><title>\\EventHandler</title>
<a xlink:href="core.EventHandler.html" xlink:title="EventHandler" target="_parent">
<polygon style="fill:none;stroke:black;" points="299,-60 203,-60 203,-24 299,-24 299,-60"/>
<text text-anchor="middle" x="251" y="-39.1" style="font-family:Courier;font-size:11.00;">EventHandler</text>
</a>
</g>
</g>
</svg>
